# xmcd
#
# Track frame offsets: 
#        150
#        14802
#        27847
#        41887
#        58658
#        78626
#        88150
#        100570
#        116437
#        131459
#        141637
#        163661
#        189760
#        204774
#        226018
#        239246
#
# Disc length: 3368 seconds
#
# Revision: 0
# Processed by: cddbd v1.5.2PL0 Copyright (c) Steve Scherf et al.
# Submitted via: ExactAudioCopy v1.0b4
#
DISCID=d80d2610
DTITLE=Big Jon Atkinson - Back Down South
DYEAR=2015
DGENRE=Blues
TTITLE0=Back Down South
TTITLE1=Just Movin'
TTITLE2=I'm Blind
TTITLE3=Just One More Shot
TTITLE4=Five Long Years
TTITLE5=Too Late Baby
TTITLE6=Come On Home
TTITLE7=Someday
TTITLE8=Two Headed Woman
TTITLE9=Baby
TTITLE10=Bound For Trouble
TTITLE11=Down This Lonesome Road
TTITLE12=Where'd You Go
TTITLE13=So All Alone
TTITLE14=Wipe Your Tears
TTITLE15=What Is Wrong With You
EXTD=
EXTT0=
EXTT1=
EXTT2=
EXTT3=
EXTT4=
EXTT5=
EXTT6=
EXTT7=
EXTT8=
EXTT9=
EXTT10=
EXTT11=
EXTT12=
EXTT13=
EXTT14=
EXTT15=
PLAYORDER=
